<svg width="17" height="17" viewBox="0 0 17 17" fill="none" xmlns="http://www.w3.org/2000/svg">
<path d="M12.7038 3.30859C12.186 3.30859 11.7682 3.73054 11.7682 4.25359C11.7682 4.77663 12.186 5.19858 12.7038 5.19858C13.2216 5.19858 13.6394 4.77663 13.6394 4.25359C13.6394 3.73054 13.2216 3.30859 12.7038 3.30859Z" fill="white"/>
<path d="M8.5351 4.52148C6.36371 4.52148 4.59702 6.30598 4.59702 8.49924C4.59702 10.6925 6.36371 12.477 8.5351 12.477C10.7065 12.477 12.4732 10.6925 12.4732 8.49924C12.4732 6.30598 10.7065 4.52148 8.5351 4.52148ZM8.5351 11.0485C7.14263 11.0485 6.01125 9.90574 6.01125 8.49924C6.01125 7.09274 7.14263 5.94996 8.5351 5.94996C9.92757 5.94996 11.059 7.09274 11.059 8.49924C11.059 9.90574 9.92757 11.0485 8.5351 11.0485Z" fill="white"/>
<path d="M11.6595 16.5737H5.27584C2.62579 16.5737 0.471802 14.398 0.471802 11.7212V5.27332C0.471802 2.59658 2.62579 0.420898 5.27584 0.420898H11.6595C14.3095 0.420898 16.4635 2.59658 16.4635 5.27332V11.7212C16.4635 14.398 14.3095 16.5737 11.6595 16.5737ZM5.27584 1.94607C3.45692 1.94607 1.97741 3.44048 1.97741 5.27772V11.7256C1.97741 13.5629 3.45692 15.0573 5.27584 15.0573H11.6595C13.4784 15.0573 14.9579 13.5629 14.9579 11.7256V5.27772C14.9579 3.44048 13.4784 1.94607 11.6595 1.94607H5.27584Z" fill="white"/>
</svg>
