<svg width="15" height="16" viewBox="0 0 15 16" fill="none" xmlns="http://www.w3.org/2000/svg">
<path d="M0.3383 5.6366H3.34516V15.3942H0.3383V5.6366ZM1.83955 0.78418C2.80123 0.78418 3.58014 1.57094 3.58014 2.5423C3.58014 3.51367 2.80123 4.30043 1.83955 4.30043C0.877875 4.30043 0.0946045 3.50927 0.0946045 2.5423C0.0946045 1.57534 0.873524 0.78418 1.83955 0.78418Z" fill="white"/>
<path d="M5.22937 5.63627H8.11005V6.97245H8.14921C8.54955 6.20327 9.52863 5.39453 10.9951 5.39453C14.0368 5.39453 14.5981 7.41637 14.5981 10.0448V15.3983H11.5956V10.6513C11.5956 9.51733 11.5738 8.06249 10.0334 8.06249C8.49298 8.06249 8.23189 9.29317 8.23189 10.5678V15.3939H5.22937V5.63627Z" fill="white"/>
</svg>
