<?xml version="1.0" encoding="UTF-8"?>
<svg id="Layer_1" xmlns="http://www.w3.org/2000/svg" version="1.1" xmlns:xlink="http://www.w3.org/1999/xlink" viewBox="0 0 32 32">
  <!-- Generator: Adobe Illustrator 29.8.1, SVG Export Plug-In . SVG Version: 2.1.1 Build 2)  -->
  <defs>
    <style>
      .st0 {
        fill: url(#linear-gradient1);
      }

      .st1 {
        fill: url(#linear-gradient);
      }
    </style>
    <linearGradient id="linear-gradient" x1=".1" y1="16" x2="31.9" y2="16" gradientUnits="userSpaceOnUse">
      <stop offset="0" stop-color="#8e6828"/>
      <stop offset=".5" stop-color="#e9d45c"/>
      <stop offset="1" stop-color="#97702a"/>
    </linearGradient>
    <linearGradient id="linear-gradient1" x1="2.5" x2="29.5" xlink:href="#linear-gradient"/>
  </defs>
  <path class="st1" d="M6.6,1.4C4.4,2.5,1.6,7.9.6,10.4c-.5,1.3-.6,2.5-.5,3.8.3,2.8,1.8,5.4,3.4,7.8,0,0,5.5,8.4,7.1,9.2,1.2.6,3.8.8,5,.8h0s.1,0,.3,0c.2,0,.3,0,.3,0h0c1.2,0,3.8-.2,5-.8,1.6-.8,7.1-9.2,7.1-9.2,1.5-2.3,3.1-5,3.4-7.8.1-1.2,0-2.5-.5-3.8-.9-2.4-2.2-4.8-3.7-6.9C25.1.2,20.8,0,16.9,0c-.5,0-1,0-1.5,0-3,0-6.3.2-8.9,1.4"/>
  <path d="M30.4,10.7c-.9-2.4-3.5-7.5-5.6-8.4-2.1-1-4.3-1.2-6-1.2-1.2,0-2.4,0-2.9,0-.5,0-1.7,0-2.9,0-1.7,0-3.9.3-6,1.2-2.1,1-4.7,6-5.6,8.4-.4,1.2-.5,2.4-.4,3.5.3,2.6,1.7,5.1,3.2,7.3,0,0,5.2,7.9,6.7,8.7,1.2.6,3.6.7,4.7.7h0s.1,0,.3,0c.2,0,.3,0,.3,0h0c1.1,0,3.5-.2,4.7-.8,1.5-.8,6.7-8.7,6.7-8.7,1.4-2.2,2.9-4.7,3.2-7.3.1-1.2,0-2.3-.4-3.5"/>
  <path class="st0" d="M13,2.7s0,0,0,0c-.7,0-4.6,0-6.8,3.1-2.5,3.5-4,7.1-3.5,8.9.4,1.4,1.6,2.7,2.2,3.2.6.5,2.6,1.4,4.4,1,1.8-.4,2.9-1.5,3.7-2.5.8-.9,1-3.4.8-4.9-.2-1.5-1.2-3.8-1.3-4.2-.2-.4-.4-.7-.1-1.2.2-.5.6-.4,1.3-.5.6,0,5.8.2,6.5.5.7.2,1,.4.8,1.1-.2.6-2.5,2.7-3.4,3.2-.4.2-.6.4-.7.1-.2-.3-.2-.7.2-1.1.2-.2.4-.4.5-.6.1-.2.3-.3.4-.5.2-.4.2-.9-.2-1.1-.4-.2-.9-.3-1.3-.3-1-.2-1.8.3-2,1.1-.2.7.9,3.6,1.3,4.2.4.7.7.8,1.1.9.4.1,1.5-.6,3.4-1.3,1.9-.7,4.3.2,4.9.5.5.4.7.4.8,1s-.7,1.6-2.2,4c-1.5,2.4-4.3,5.3-4.3,5.3,0,0,1.1-2.3,1.4-3,.3-.6,1.7-3.4,2.4-4.5.6-1.1.6-2-.5-2.5-1.2-.4-3.4.1-5.9,1.9-2.5,1.8-2.7,3.3-6.2,4.7-3.4,1.3-5.7.2-5.7.2l1,1.8c1,1.8,3.8,5.4,3.8,5.4,0,0,1.5-2.1,2.8-3.6,2-2.2,4.2-3.5,4.2-3.5,0,0-1.1,1.3-2.3,2.9-1.3,1.6-3.1,5.6-3.1,5.6,0,0-.2,0,.7.6.9.6,5.1.8,6.7.7,1.6,0,3-.6,4.1-2.1,1.6-2.1,3.6-5.6,4.9-8,1.3-2.5,1.8-4.4,2-5.6.2-1.3-.6-3-.6-3-1-3.4-5.1-6.7-6.7-7.4-1.1-.5-4-.6-6.4-.6s-2.2,0-2.8,0"/>
  <path d="M7.2,10.7s2.2-.1,2.2,0,0,.2,0,.2h.8s0-.4,0-.5c0-.1-.1-.3-.5-.4-.3,0-2.8,0-3,0-.1,0-.4.2-.4.5,0,.3-.3,1.9-.2,2.1,0,.2,0,.4.7.4.6,0,2.6,0,2.7,0,.2,0,.4,0,.4-.3,0-.2,0-1.4,0-1.4h-1.5s0,.7,0,.7h.7s0,.5,0,.5c0,0-2.2,0-2.3,0,0,0,.2-1.8.2-1.8"/>
</svg>