<svg width="91" height="81" viewBox="0 0 91 81" fill="none" xmlns="http://www.w3.org/2000/svg">
<g clip-path="url(#clip0_6172_1259)">
<path d="M42.3017 6.76143C42.1265 6.73843 40.8396 6.74609 40.7787 6.77676C40.7177 6.80742 40.5807 6.87642 40.5654 7.02974C40.5502 7.1754 40.4284 8.01867 40.4741 8.11833C40.5121 8.21798 40.5197 8.33298 40.8091 8.34831C41.0985 8.36364 42.1341 8.34831 42.2179 8.33298C42.3017 8.30998 42.4387 8.28698 42.4464 8.16432C42.454 8.04933 42.4997 7.43604 42.4997 7.43604H41.7153L41.6849 7.77335H42.058C42.058 7.77335 42.0656 8.01867 42.0428 8.01867C42.0199 8.01867 40.8853 8.04933 40.8624 8.02633C40.8396 8.00333 40.969 7.09873 40.969 7.09873C40.969 7.09873 42.1037 7.04507 42.1189 7.07574C42.1418 7.1064 42.1265 7.19839 42.1265 7.19839H42.5225C42.5225 7.19839 42.553 7.00674 42.5301 6.94541C42.5073 6.88408 42.4692 6.77676 42.2941 6.74609L42.3017 6.76143Z" fill="white"/>
<path d="M50.0245 2.8288C48.966 2.33817 47.8085 2.20785 46.948 2.20018C46.316 2.19252 45.7296 2.20018 45.4631 2.20018C45.1966 2.20018 44.6102 2.19252 43.9781 2.20018C43.1176 2.21552 41.9678 2.34584 40.9017 2.8288C39.8432 3.31944 38.4953 5.90291 38.0308 7.12182C37.8023 7.72744 37.749 8.3254 37.8099 8.91569C37.9546 10.2419 38.7009 11.5145 39.4396 12.6414C39.4396 12.6414 42.0896 16.6584 42.8816 17.0571C43.4755 17.3561 44.732 17.4251 45.3032 17.4327C45.3032 17.4327 45.3565 17.4327 45.4555 17.4327C45.5468 17.4327 45.6002 17.4327 45.6002 17.4327C46.1713 17.4174 47.4278 17.3484 48.0217 17.0494C48.8137 16.6508 51.4638 12.6337 51.4638 12.6337C52.2024 11.5145 52.9563 10.2343 53.0934 8.90802C53.1619 8.31773 53.101 7.71211 52.8725 7.11415C52.408 5.88758 51.0602 3.3041 50.0017 2.82114L50.0245 2.8288ZM52.3471 8.60904C52.2557 9.24533 52.012 10.2113 51.3267 11.4685C50.6337 12.7257 49.6133 14.4889 48.8061 15.5545C48.2502 16.2905 47.5496 16.5741 46.7196 16.6125C45.8895 16.6508 43.7192 16.5511 43.2776 16.2521C42.8359 15.9532 42.9196 15.9455 42.9196 15.9455C42.9196 15.9455 43.8715 13.9446 44.5264 13.1167C45.1813 12.2888 45.7296 11.6525 45.7296 11.6525C45.7296 11.6525 44.5797 12.3041 43.5669 13.431C42.9044 14.167 42.1125 15.2632 42.1125 15.2632C42.1125 15.2632 40.6656 13.4617 40.1554 12.5341L39.6528 11.6065C39.6528 11.6065 40.8331 12.1891 42.5922 11.5145C44.3513 10.8399 44.496 10.0349 45.7677 9.138C47.0394 8.24107 48.2045 7.96509 48.8061 8.18741C49.4077 8.40972 49.4153 8.90802 49.0878 9.45231C48.7528 9.99661 47.9989 11.4302 47.8542 11.7521C47.7095 12.0741 47.1155 13.27 47.1155 13.27C47.1155 13.27 48.5624 11.7905 49.3239 10.5716C50.0854 9.35265 50.4738 8.83136 50.4433 8.52472C50.4129 8.21807 50.3215 8.18741 50.0473 8.00342C49.7732 7.81943 48.5396 7.38247 47.5496 7.72744C46.5596 8.07242 46.0114 8.43272 45.8058 8.37906C45.6002 8.3254 45.4707 8.2794 45.2499 7.92676C45.0214 7.57412 44.4655 6.13289 44.5721 5.76492C44.6787 5.39695 45.0823 5.14397 45.5925 5.22829C45.8134 5.26662 46.0723 5.27429 46.2627 5.39695C46.4683 5.51961 46.4607 5.78025 46.354 5.97191C46.3007 6.0639 46.2094 6.14823 46.1408 6.22489C46.0494 6.33221 45.9581 6.43954 45.8667 6.54686C45.6991 6.74618 45.7144 6.9455 45.7905 7.08349C45.8667 7.22148 45.9657 7.12949 46.1561 7.01449C46.5977 6.74618 47.7704 5.67293 47.8923 5.36628C48.0294 5.01364 47.8466 4.92932 47.4963 4.82199C47.146 4.71466 44.4884 4.56901 44.1533 4.59201C43.8182 4.61501 43.6126 4.59201 43.4908 4.82199C43.3766 5.05964 43.4832 5.22063 43.5593 5.41995C43.6355 5.61926 44.1457 6.78451 44.2447 7.53579C44.336 8.28707 44.2142 9.52897 43.8106 10.0043C43.407 10.4796 42.8511 11.0699 41.8992 11.2615C40.955 11.4532 39.9117 10.9932 39.6299 10.7556C39.3406 10.5179 38.7009 9.85095 38.5029 9.12267C38.2592 8.21807 39.0207 6.37054 40.3229 4.59967C41.4652 3.03579 43.4375 3.04346 43.8182 3.04346C43.8411 3.04346 43.8563 3.04346 43.8715 3.04346C44.1837 3.03579 44.6863 3.02046 45.2499 3.02046H45.3717C46.5901 3.02046 48.0598 3.07412 48.6005 3.3271C49.4077 3.69507 51.5094 5.40461 52.0349 7.11415C52.0349 7.11415 52.4461 7.98042 52.3547 8.61671L52.3471 8.60904Z" fill="white"/>
<path d="M22.7233 71.9923C22.7233 71.9923 22.6929 72.0537 22.6777 72.0843V74.2692H2.76427C2.73381 74.8518 2.79473 75.6491 2.76427 76.2393C1.75146 76.316 0.860502 76.178 0 76.2393V81.0077H91V76.2393C90.109 76.1627 89.2942 76.316 88.3956 76.2393C88.3652 75.6414 88.3347 74.8441 88.3043 74.2692H68.2157V13.201C67.0278 13.1244 65.9693 13.063 64.7813 12.9864V5.54259H55.9174V0H34.9684V5.60392H26.1806V13.0247C24.9546 13.086 23.9189 13.1397 22.769 13.201V15.5392L22.7233 71.9847V71.9923ZM31.0771 20.7905H38.5018V28.0119H31.0771V20.7905ZM38.4789 62.9003C36.2629 62.9003 34.1383 62.954 32.0213 62.8467C31.6634 62.8313 31.0542 62.1337 31.039 61.7198C30.94 59.6959 30.9933 57.6644 30.9933 55.4872H38.4789V62.8927V62.9003ZM38.5322 51.1405H31.0923V43.9344H38.5322V51.1405ZM38.5703 39.7487C36.2172 39.7487 34.085 39.7871 31.968 39.7104C31.6406 39.6951 31.0695 39.1661 31.0542 38.8595C30.9705 36.7359 31.0085 34.6048 31.0085 32.2666C33.354 32.2666 35.5243 32.2283 37.7022 32.3126C37.9992 32.3203 38.517 32.9029 38.5322 33.2402C38.6084 35.3177 38.5703 37.4029 38.5703 39.7487ZM48.2414 17.563C47.6018 17.885 46.2691 17.954 45.6599 17.9693C45.6599 17.9693 45.599 17.9693 45.5 17.9693C45.401 17.9693 45.3401 17.9693 45.3401 17.9693C44.7309 17.954 43.3982 17.885 42.7586 17.563C41.9209 17.1414 39.0957 12.8637 39.0881 12.8637C38.2962 11.6678 37.5042 10.3109 37.3519 8.89267C37.2833 8.26405 37.3443 7.6201 37.5879 6.97615C38.0829 5.67291 39.5146 2.92078 40.6492 2.39949C41.9971 1.77853 43.6952 1.67121 45.2335 1.67121C45.4924 1.67121 45.7437 1.67121 45.9874 1.67888C47.9749 1.71721 50.1985 1.75554 51.5159 3.48808C52.3079 4.53066 52.9551 5.74957 53.4197 6.97615C53.6633 7.6201 53.7243 8.26405 53.6557 8.89267C53.5034 10.3032 52.7038 11.6601 51.9119 12.8637C51.9119 12.8637 49.0867 17.1414 48.249 17.563H48.2414ZM52.5896 32.4123H59.9229V39.6261H52.5896V32.4123ZM59.8925 62.7547H52.6658V55.4259H59.8925V62.7547ZM59.9305 51.2249H52.6582V43.8961H59.9305V51.2249ZM59.9458 28.0579H52.6201V20.7751H59.9458V28.0579Z" fill="white"/>
</g>
<defs>
<clipPath id="clip0_6172_1259">
<rect width="91" height="81" fill="white"/>
</clipPath>
</defs>
</svg>
