<svg width="129" height="99" viewBox="0 0 129 99" fill="none" xmlns="http://www.w3.org/2000/svg">
<g clip-path="url(#clip0_6172_801)">
<path d="M82.6957 0C91.2524 0 99.8218 0 108.378 0C108.905 0 109.169 0.266231 109.169 0.798694C109.169 3.28352 109.169 5.75567 109.169 8.24049C109.169 8.72224 109.309 8.8617 109.794 8.8617C115.94 8.84902 122.1 8.8617 128.246 8.8617C128.748 8.8617 128.999 9.1068 128.999 9.597C128.999 10.6493 128.999 11.7142 128.999 12.7664C129.024 17.0895 128.042 21.2098 126.308 25.1398C123.094 32.4549 117.777 37.7795 110.687 41.418C109.845 41.849 108.978 42.2167 108.098 42.5463C107.69 42.6984 107.422 42.9266 107.243 43.3323C105.981 46.1848 104.285 48.7457 102.092 50.9643C99.0311 54.0576 95.4351 56.3396 91.2651 57.6961C90.7295 57.8736 90.5383 58.1018 90.551 58.685C90.5893 61.0684 90.5128 63.4391 90.5765 65.8225C90.7295 71.3246 94.7337 76.1548 100.013 77.3592C100.714 77.524 101.441 77.5747 102.168 77.6128C102.589 77.6381 102.716 77.7902 102.704 78.1959C102.691 80.2244 102.704 82.2528 102.691 84.2812C102.691 84.7376 102.806 84.8897 103.29 84.8897C105.063 84.8644 106.835 84.8897 108.595 84.8771C109.029 84.8771 109.182 84.9912 109.182 85.4349C109.169 89.7706 109.169 94.1191 109.182 98.4549C109.182 99 108.927 99.038 108.506 99.038C100.893 99.038 93.2672 99.038 85.6542 99.038C76.1029 99.038 66.5389 99.038 56.9876 99.038C56.0566 99.038 56.2479 99.0761 56.2097 98.252C56.0694 94.9812 56.1714 91.723 56.1459 88.4522C56.1459 87.3999 56.2097 86.3477 56.1969 85.2828C56.1969 84.8517 56.452 84.8897 56.7325 84.8897C58.4795 84.8897 60.2393 84.8897 61.9864 84.8897C62.6495 84.8897 62.7005 84.8137 62.6622 84.1671C62.5475 82.1387 62.6367 80.1103 62.6112 78.0945C62.6112 77.7649 62.7642 77.6635 63.0703 77.6508C64.8046 77.5494 66.4751 77.2324 68.0181 76.383C71.7034 74.3673 73.9606 71.3246 74.6747 67.1917C74.7767 66.6339 74.7384 66.0507 74.7512 65.4929C74.7512 63.3123 74.7512 61.1318 74.7512 58.9639C74.7512 58.0004 74.7639 57.975 73.833 57.6581C69.1658 56.0861 65.2764 53.373 62.0756 49.6838C60.4689 47.8456 59.1299 45.8045 58.2373 43.5098C58.046 43.0154 57.7272 42.7365 57.2298 42.5463C50.1524 39.8206 44.7073 35.1552 40.8179 28.7023C38.5608 24.9624 37.1963 20.9055 36.6097 16.5824C36.2782 14.1356 36.1889 11.6761 36.3547 9.21667C36.3674 9.01383 36.4312 8.89973 36.648 8.89973C36.8138 8.89973 36.9795 8.89973 37.1581 8.89973C43.2536 8.89973 49.3618 8.89973 55.4573 8.89973C55.9589 8.89973 56.2097 8.6504 56.2097 8.15175C56.2097 5.64157 56.2224 3.13139 56.1969 0.608529C56.1969 0.16481 56.3117 0.038033 56.758 0.038033C60.7494 0.0507107 64.7408 0.038033 68.745 0.038033C73.3995 0.038033 78.0412 0.038033 82.6957 0.038033V0ZM82.734 13.5017C82.5044 13.7046 82.4789 13.8947 82.4152 14.0595C81.4333 16.6838 80.4514 19.2954 79.4822 21.9197C79.3547 22.2747 79.1762 22.5029 78.7808 22.5156C78.5641 22.5156 78.3473 22.5789 78.1305 22.5789C75.4016 22.5789 72.6854 22.8452 69.9564 22.8832C69.8672 22.8832 69.7524 22.8579 69.6886 23.0227C70.0712 23.3269 70.4537 23.6439 70.8363 23.9608C72.8001 25.4948 74.7512 27.0288 76.7278 28.5501C77.0721 28.8164 77.1486 29.0699 77.0211 29.501C76.2177 32.2267 75.4526 34.965 74.6747 37.7034C74.6364 37.8429 74.5089 37.995 74.6747 38.1091C74.7894 38.1852 74.8915 38.0711 74.9935 38.0077C77.4419 36.3723 79.8903 34.7495 82.3387 33.1014C82.6192 32.9113 82.785 32.9239 83.0528 33.1014C85.4884 34.7242 87.9241 36.3469 90.3597 37.957C90.4745 38.033 90.5765 38.1852 90.7806 38.0964C90.7423 37.9316 90.7168 37.7668 90.6658 37.6147C89.9007 34.927 89.161 32.2267 88.3704 29.5517C88.2301 29.0826 88.2939 28.791 88.702 28.4867C90.7678 26.8894 92.8081 25.2793 94.8485 23.6566C95.1035 23.4537 95.3585 23.2382 95.6136 23.0353C95.4861 22.8452 95.333 22.8832 95.2055 22.8832C93.484 22.8071 91.7752 22.7818 90.0664 22.655C88.957 22.5789 87.8476 22.6297 86.7381 22.5156C86.2791 22.4648 86.0368 22.2747 85.8965 21.869C85.4884 20.766 85.0804 19.6758 84.6596 18.5728C84.0347 16.8993 83.3971 15.2259 82.7595 13.4891L82.734 13.5017ZM109.169 24.8483C109.169 27.6881 109.169 30.5405 109.169 33.3803C109.169 33.5198 109.093 33.71 109.246 33.7987C109.399 33.8874 109.526 33.7226 109.641 33.6466C111.732 32.4168 113.543 30.8321 115.175 29.0699C118.516 25.4441 120.569 21.1844 121.411 16.3415C121.488 15.8978 121.373 15.7457 120.914 15.7457C117.19 15.7584 113.466 15.7584 109.756 15.7457C109.258 15.7457 109.169 15.9232 109.169 16.3542C109.182 19.1813 109.169 22.0085 109.169 24.8356V24.8483ZM56.1204 24.8736C56.1204 24.8736 56.1204 24.8736 56.1332 24.8736C56.1332 22.0211 56.1332 19.1813 56.1332 16.3289C56.1332 15.9612 56.0949 15.7457 55.6231 15.7457C51.8867 15.7584 48.1504 15.7584 44.4013 15.7457C43.9677 15.7457 43.8912 15.9232 43.9549 16.3035C45.3067 23.7707 49.2088 29.5263 55.6231 33.6085C55.7506 33.6846 55.8781 33.8367 56.0184 33.7733C56.1714 33.6973 56.0949 33.4944 56.0949 33.355C56.0949 30.5279 56.0949 27.7007 56.0949 24.8609L56.1204 24.8736Z" fill="white"/>
<path d="M37.5312 32.3916L65.063 89.3905" stroke="black" stroke-width="1.07" stroke-miterlimit="10"/>
<path d="M3.33984 55.5665C5.32917 56.213 7.35675 56.492 9.44809 56.3018C16.1557 55.7186 20.7082 50.2038 25.2097 45.8554C26.7654 44.3594 28.3722 42.9268 30.1702 41.7098C31.7005 40.6829 33.371 39.8208 35.169 39.3644C37.4644 38.7939 39.849 38.9587 42.0934 39.656C42.5907 39.8081 43.1646 39.9856 43.6109 40.2645L47.0795 49.5192C46.5311 49.3925 45.9955 49.1769 45.4472 49.0248C44.2995 48.6952 43.1391 48.505 41.9404 48.4923C36.4442 48.4036 31.8662 52.4224 28.1554 55.9975C26.7399 56.7962 25.9875 57.6329 25.1331 58.9768C24.8653 59.1669 24.6231 59.4078 24.3808 59.6233C23.9855 59.9783 23.6029 60.3333 23.1948 60.6883C21.1417 62.4758 19.0249 64.162 16.4745 65.1888C13.4395 66.4059 9.91991 66.3552 6.89767 65.0747L4.6023 58.9261C4.18148 57.7978 3.73516 56.6821 3.3526 55.5411L3.33984 55.5665Z" fill="white"/>
<path d="M24.8154 46.6791C25.708 46.3622 26.5369 46.1974 27.4295 46.6157C28.3859 47.0594 29.0236 47.9722 29.3679 48.9357C30.0437 50.8374 29.5974 52.9292 28.743 54.6914C28.6282 54.9196 28.5262 55.1478 28.3859 55.3633C28.2202 55.6042 27.9524 55.8704 27.8376 56.1367C27.5061 56.5677 27.0342 56.9734 26.6389 57.341C26.4986 57.4171 26.3584 57.5439 26.2181 57.6326C25.8228 57.9115 25.4147 58.1905 24.9556 58.3299C24.1778 58.5835 23.3234 58.5201 22.5838 58.1524C21.7039 57.696 21.1555 56.8593 20.8495 55.9338C20.1481 53.7659 20.773 51.5981 21.7804 49.6584C22.6475 48.3145 23.3871 47.4778 24.8026 46.6791H24.8154Z" fill="#103988"/>
<path d="M22.0469 50.5837C22.1999 50.2795 22.3657 49.9879 22.5315 49.6963C22.659 49.8484 22.7865 50.0132 22.9013 50.1654C23.5644 51.1796 23.3603 51.1669 24.4188 51.9276L24.3295 52.105C23.7301 51.4838 23.0415 51.243 22.3529 50.7866L22.3019 50.7612L22.0469 50.5837Z" fill="#FCFBFA"/>
<path d="M22.5977 49.595C22.8017 49.3035 23.0185 49.0372 23.2608 48.771C23.3118 48.8978 23.3628 49.0372 23.4138 49.164C23.7453 50.2416 23.8856 50.7614 24.587 51.6869L24.5232 51.8136C24.3447 51.5347 23.9621 50.9769 23.7453 50.7614C23.4648 50.4698 23.146 50.2289 22.8782 49.912C22.8017 49.7979 22.6997 49.6965 22.6104 49.5824L22.5977 49.595Z" fill="#FCFBFA"/>
<path d="M22.0115 50.7236C22.088 50.7617 22.1645 50.8124 22.2283 50.8504C23.1847 51.573 22.9806 51.8139 24.2686 52.2576C24.2431 52.3337 24.2176 52.4098 24.2048 52.4858C23.7075 52.0294 22.9934 52.0168 22.3558 51.9027C22.1007 51.8519 21.8712 51.7886 21.6289 51.6998C21.7309 51.3702 21.8584 51.0406 22.0115 50.7363V50.7236Z" fill="#FCFBFA"/>
<path d="M21.9961 56.3901C22.1619 56.238 22.3021 56.0351 22.4679 55.8703C22.9015 55.4266 23.4116 55.0209 23.7941 54.5265C24.0237 54.2222 24.1895 53.8799 24.4062 53.563L24.47 53.6517C24.215 54.0828 23.9217 54.4758 23.6539 54.9068C23.3223 55.452 23.029 56.0605 22.7612 56.631C22.6975 56.7704 22.6337 56.9099 22.5572 57.0367C22.3787 56.8719 22.0726 56.631 22.0088 56.3901H21.9961Z" fill="#FCFBFA"/>
<path d="M21.9599 55.1606C22.3552 54.9578 23.1458 54.5014 23.4519 54.2098C23.7452 53.9436 24.0002 53.6139 24.319 53.3857V53.5125C23.9875 53.8295 23.6432 54.1464 23.3371 54.476C22.9163 54.9324 22.2787 55.8072 21.9344 56.327C21.7686 56.0481 21.6538 55.7691 21.5391 55.4776C21.6666 55.3635 21.8196 55.262 21.9471 55.1479L21.9599 55.1606Z" fill="#FCFBFA"/>
<path d="M24.7257 53.7783L24.8277 53.8037C24.7639 54.2347 24.6492 54.6531 24.5727 55.0841C24.4451 55.756 24.3431 56.4533 24.2921 57.1379C24.2284 57.2647 24.2156 57.4549 24.1646 57.5943C23.8968 57.5816 23.6418 57.5436 23.3867 57.4675L23.527 57.1379C23.731 56.6181 24.0371 56.149 24.2539 55.6419C24.5089 55.0461 24.6237 54.4122 24.7384 53.791L24.7257 53.7783Z" fill="#FCFBFA"/>
<path d="M23.3359 48.6568C23.54 48.416 23.7823 48.2131 24.0373 48.0229C24.0756 48.2511 24.1138 48.492 24.1521 48.7202C24.2541 49.6964 24.4326 50.6092 24.8279 51.522C24.7897 51.5473 24.7387 51.5727 24.7004 51.6107C24.5474 51.1417 24.3689 50.6599 24.1393 50.2162C23.9225 49.8105 23.6675 49.4175 23.4635 48.9991L23.3359 48.6568Z" fill="#FCFBFA"/>
<path d="M21.6017 51.8516C22.0862 51.9276 22.4816 52.2192 22.9279 52.3967C23.3104 52.5488 23.7823 52.5742 24.1903 52.5869V52.777C22.9789 52.4981 22.7238 52.8151 21.5889 52.9418L21.3594 52.9672C21.4231 52.5869 21.4741 52.2065 21.6017 51.8516Z" fill="#FCFBFA"/>
<path d="M21.795 54.1714C22.5219 53.9559 23.6823 53.6643 24.2052 53.1318L24.2562 53.3347C23.2487 53.753 22.7132 54.3616 21.9225 55.0462L21.5017 55.3504C21.4252 55.0335 21.3614 54.7165 21.3359 54.3869C21.489 54.3109 21.642 54.2348 21.795 54.1587V54.1714Z" fill="#FCFBFA"/>
<path d="M24.5368 53.6899L24.6388 53.7533C24.4985 54.2351 24.2562 54.7042 24.0905 55.1859C23.8482 55.8325 23.6696 56.4917 23.4018 57.1383L23.2743 57.4552C23.0448 57.3665 22.8408 57.2524 22.6367 57.1129C22.7132 56.9481 22.7897 56.7833 22.879 56.6058C23.1213 56.2128 23.4273 55.8705 23.7079 55.4902C24.0905 54.9577 24.3582 54.3111 24.5495 53.6899H24.5368Z" fill="#FCFBFA"/>
<path d="M24.9824 53.8037H25.0206C25.1354 54.0192 24.9824 54.932 25.0079 55.249C25.0334 55.8321 25.1737 56.4026 25.1992 56.9858C25.1992 57.1253 25.1992 57.2774 25.1992 57.4169C24.9059 57.5056 24.6253 57.5563 24.332 57.5817C24.3575 57.3788 24.4085 57.1633 24.4468 56.9605C24.5616 56.3646 24.7784 55.8068 24.8676 55.2109C24.9441 54.7545 24.8931 54.2474 24.9951 53.8037H24.9824Z" fill="#FCFBFA"/>
<path d="M21.4754 54.235C21.4116 54.235 21.3989 54.2476 21.3479 54.2223C21.2968 53.88 21.2841 53.4616 21.3479 53.132C21.3989 53.0686 21.4626 53.0813 21.5391 53.0559C22.0875 53.0179 22.47 53.1447 22.9546 53.1447C23.3244 53.1447 23.809 52.9926 24.1788 52.9038V53.0813C23.4392 53.0559 22.7506 53.5123 22.113 53.8546C21.9345 53.9561 21.6794 54.0448 21.5391 54.1843C21.5264 54.1969 21.5009 54.2223 21.4881 54.235H21.4754Z" fill="#FCFBFA"/>
<path d="M25.1602 53.7153L25.2622 53.6772C25.2622 53.6772 25.3132 53.7533 25.3259 53.804C25.3514 53.9181 25.3259 54.0449 25.3387 54.159C25.3642 54.4252 25.4152 54.7168 25.479 54.9704C25.5937 55.4521 25.8615 55.8958 26.0656 56.3522L26.2313 56.8213C25.938 57.0368 25.6447 57.2016 25.3004 57.3411C25.3004 57.2016 25.2877 57.0749 25.3004 56.9354C25.2749 56.3269 25.3642 55.7437 25.3514 55.1352C25.3514 54.6534 25.2494 54.159 25.1729 53.6899L25.1602 53.7153Z" fill="#FCFBFA"/>
<path d="M25.4924 53.4873C25.9515 54.6283 26.3723 54.9072 27.0099 55.8453C27.0609 55.9214 27.0992 55.9721 27.1119 56.0609C26.8951 56.3398 26.5763 56.5426 26.3213 56.7708L26.232 56.4539C26.0535 55.8453 26.028 55.2115 25.8495 54.6029C25.7602 54.286 25.4669 53.8676 25.4414 53.5634L25.5179 53.4746L25.4924 53.4873Z" fill="#FCFBFA"/>
<path d="M25.6809 53.2461C25.9615 53.5503 26.2293 53.8546 26.5736 54.0955C26.9179 54.3364 27.2877 54.5265 27.632 54.7674L27.9126 54.9702C27.6958 55.2872 27.4917 55.6422 27.2239 55.9084C27.1602 55.9084 27.1857 55.9084 27.1474 55.8577C27.1219 55.8196 27.0964 55.7943 27.0837 55.7563C26.5863 54.8561 26.293 54.1589 25.6172 53.3475L25.6809 53.2334V53.2461Z" fill="#FCFBFA"/>
<path d="M25.9242 52.8911C26.6893 53.4616 27.6329 53.4489 28.5001 53.7659C28.4108 54.1335 28.1558 54.5519 27.9645 54.8942C27.8625 54.8181 27.7732 54.7547 27.6712 54.6787C27.3524 54.3744 27.0846 54.0321 26.7531 53.7278C26.4725 53.4743 26.1027 53.2588 25.8477 52.9799L25.9114 52.9038L25.9242 52.8911Z" fill="#FCFBFA"/>
<path d="M24.125 47.9597C24.4183 47.7442 24.6861 47.5667 25.0176 47.4146V47.6935C24.9539 48.9612 24.8774 50.1149 25.0687 51.3827L24.9539 51.4461C24.8264 50.5079 24.6096 49.6458 24.329 48.7457C24.278 48.4795 24.1888 48.2259 24.1378 47.9597H24.125Z" fill="#FCFBFA"/>
<path d="M25.1094 47.364C25.3899 47.288 25.6705 47.2246 25.9638 47.2119C25.9255 47.8458 25.747 48.4924 25.6195 49.1136C25.5684 49.3544 25.4537 49.7348 25.4919 49.9883C25.3899 50.4067 25.4409 51.0533 25.3262 51.3955C25.2624 51.4209 25.3007 51.4082 25.2369 51.4209C25.3262 50.749 25.3134 50.001 25.2496 49.3291C25.1986 48.7966 25.1094 48.2768 25.1094 47.7317V47.3767V47.364Z" fill="#FCFBFA"/>
<path d="M26.0539 52.1936C26.4109 52.1176 26.7552 52.0542 27.0996 51.9147C27.7627 51.6358 28.362 51.2174 29.0379 50.9766C29.0379 51.2681 29.0634 51.9527 28.9486 52.2063C28.3365 52.257 27.7372 52.1809 27.1251 52.1936C26.7425 52.1936 26.3854 52.2824 26.0156 52.3204L26.0666 52.1936H26.0539Z" fill="#FCFBFA"/>
<path d="M27.4543 49.1767C27.6328 48.8218 27.7731 48.4541 27.9516 48.0991C28.1046 48.302 28.2704 48.4921 28.3979 48.7076C28.2449 48.9739 28.1684 49.2528 28.0791 49.5571C27.722 50.1909 26.9824 50.66 26.4723 51.1798C26.3193 51.3319 26.0898 51.6996 25.9113 51.801C25.8985 51.7249 25.9113 51.6996 25.9368 51.6235C26.0515 51.5348 26.1535 51.37 26.2428 51.2559C26.7274 50.6347 27.212 49.9374 27.4415 49.1767H27.4543Z" fill="#FCFBFA"/>
<path d="M26.0021 52.4602C26.2189 52.5363 26.4101 52.5997 26.6397 52.6123C27.0732 52.6377 28.4632 52.4222 28.8713 52.2827L28.9223 52.3081C28.9223 52.5109 28.68 53.5505 28.5525 53.6646C28.5525 53.6646 28.5397 53.6646 28.527 53.6646C28.0296 53.4491 27.5706 53.1702 27.0732 52.9546C26.7162 52.8025 26.3336 52.7138 25.9766 52.5743V52.4475L26.0021 52.4602Z" fill="#FCFBFA"/>
<path d="M26.0891 47.2119C26.4079 47.2373 26.7139 47.3133 27.0072 47.4148C26.9307 47.6176 26.8669 47.8204 26.8032 48.0233C26.5099 48.7839 26.1783 49.5193 25.936 50.3053C25.8723 50.5081 25.6555 51.3955 25.6045 51.4716L25.5407 51.4082C25.528 51.2434 25.5917 51.0532 25.63 50.8884C26.0253 49.7094 25.885 48.4163 26.0891 47.2119Z" fill="#FCFBFA"/>
<path d="M27.0871 47.4775C27.3549 47.617 27.6355 47.7818 27.8523 47.9973C27.6865 48.3903 27.5079 48.758 27.2784 49.1256C26.7301 49.8863 26.22 50.7484 25.8119 51.5978C25.7864 51.6105 25.8119 51.5978 25.7482 51.5978L25.7227 51.5217C25.9777 50.9766 26.2327 50.4568 26.424 49.8863C26.6025 49.3158 26.7173 48.72 26.8831 48.1368C26.9469 47.9213 27.0106 47.7057 27.0744 47.4902L27.0871 47.4775Z" fill="#FCFBFA"/>
<path d="M28.2964 49.2019L28.577 48.999C28.679 49.2399 28.7682 49.4935 28.8447 49.747C28.5897 49.9245 28.3219 50.0893 28.0414 50.2414C28.3474 50.1654 28.6152 50.0639 28.883 49.9118C28.9468 50.2288 28.9978 50.533 29.0233 50.85C28.1944 51.0782 27.3655 51.281 26.6131 51.6867C26.3963 51.8008 26.2051 51.9529 25.9883 52.067V51.9783C26.2433 51.7374 26.5366 51.5599 26.8172 51.3571C27.238 51.0401 27.7608 50.533 28.0031 50.0639C28.0796 49.9118 28.1306 49.747 28.1689 49.5822C28.2071 49.4554 28.2454 49.3286 28.2964 49.2019Z" fill="#FCFBFA"/>
<path d="M27.8382 56.1239L27.8637 56.0986C28.1697 55.8324 28.4375 55.5154 28.7308 55.2238C29.1644 54.7801 29.6234 54.3617 30.0825 53.9434C33.3726 50.9261 37.4532 47.8961 42.1587 48.137C43.893 48.2258 45.5508 48.6568 47.1448 49.3287L50.6771 58.7229C47.2596 57.3917 43.9185 56.9987 40.4755 58.4947C37.9505 59.5976 35.7954 61.3598 33.7806 63.1854C31.0262 65.6702 28.4758 68.3706 25.5683 70.7033C20.697 74.608 16.5016 76.0786 10.3933 74.1009C9.24563 71.0202 8.12344 67.9269 6.9375 64.8715H6.97576C7.32006 64.9476 7.66437 65.0744 7.99592 65.1758C8.49325 65.3153 9.01609 65.4294 9.53892 65.5181C13.3645 66.1393 16.7949 65.0744 19.9956 62.9952C21.8574 61.7909 23.5152 60.371 25.122 58.8623C25.581 58.4313 26.2696 57.8228 26.6395 57.341C27.0348 56.9733 27.5066 56.5677 27.8382 56.1366V56.1239Z" fill="#09892F"/>
<path d="M0 46.2227C1.98932 46.8693 4.0169 47.1482 6.10824 46.958C12.8158 46.3749 17.3683 40.8601 21.8698 36.5116C23.4256 35.0157 25.0323 33.5831 26.8304 32.366C28.3606 31.3391 30.0311 30.4771 31.8292 30.0207C34.1246 29.4502 36.5092 29.615 38.7536 30.3122C39.2509 30.4644 39.8247 30.6419 40.2711 30.9208L43.7396 40.1755C43.1913 40.0487 42.6557 39.8332 42.1074 39.6811C40.9597 39.3514 39.7992 39.1613 38.6005 39.1486C33.1044 39.0598 28.5264 43.0787 24.8155 46.6538C23.4001 47.4525 22.6477 48.2892 21.7933 49.633C21.5255 49.8232 21.2832 50.0641 21.0409 50.2796C20.6456 50.6346 20.263 50.9895 19.855 51.3445C17.8019 53.1321 15.6851 54.8182 13.1346 55.8451C10.0996 57.0621 6.58007 57.0114 3.55783 55.731L1.26246 49.5823C0.841637 48.454 0.395314 47.3384 0.0127521 46.1974L0 46.2227Z" fill="#F2730A"/>
</g>
<defs>
<clipPath id="clip0_6172_801">
<rect width="129" height="99" fill="white"/>
</clipPath>
</defs>
</svg>
