<svg width="121" height="99" viewBox="0 0 121 99" fill="none" xmlns="http://www.w3.org/2000/svg">
<g clip-path="url(#clip0_6172_1006)">
<path d="M73.43 21.8496L54.5 94.9396" stroke="black" stroke-width="1.07" stroke-miterlimit="10"/>
<path d="M118.58 41.1596C116.41 42.3696 114.11 43.1596 111.64 43.4296C103.69 44.2896 97.13 38.8696 90.88 34.8096C88.73 33.4096 86.51 32.0996 84.15 31.0996C82.12 30.2396 79.99 29.6196 77.78 29.4996C74.97 29.3496 72.24 30.0896 69.79 31.4296C69.24 31.7296 68.62 32.0696 68.15 32.4896L66.25 44.1296C66.86 43.8596 67.44 43.4896 68.04 43.1796C69.29 42.5296 70.62 42.0496 72 41.7496C78.38 40.3896 84.64 44.0496 89.79 47.3896C91.63 47.9996 92.69 48.8196 94 50.1896C94.36 50.3496 94.7 50.5796 95.03 50.7796C95.57 51.1096 96.11 51.4396 96.65 51.7496C99.45 53.3696 102.31 54.8696 105.51 55.4796C109.33 56.1996 113.42 55.3396 116.63 53.1496L117.89 45.4296C118.12 44.0196 118.39 42.5996 118.57 41.1796L118.58 41.1596Z" fill="white"/>
<path d="M91.5308 35.6699C90.4208 35.4999 89.4208 35.4999 88.4708 36.1999C87.4608 36.9399 86.9208 38.1499 86.7508 39.3599C86.4108 41.7399 87.4008 44.0899 88.8008 45.9499C88.9808 46.1899 89.1608 46.4399 89.3808 46.6499C89.6308 46.8999 90.0008 47.1499 90.1908 47.4399C90.6708 47.8699 91.3208 48.2399 91.8608 48.5799C92.0508 48.6299 92.2408 48.7499 92.4208 48.8299C92.9408 49.0699 93.4808 49.2899 94.0508 49.3599C95.0208 49.4699 96.0008 49.2099 96.7708 48.6099C97.7008 47.8699 98.1408 46.7599 98.2708 45.6099C98.5808 42.9099 97.3608 40.5099 95.7508 38.4699C94.4408 37.0999 93.3808 36.2799 91.5408 35.6699H91.5308Z" fill="#103988"/>
<path d="M95.6497 39.6097C95.3997 39.2897 95.1497 38.9797 94.8697 38.6797C94.7497 38.8897 94.6497 39.0997 94.5397 39.3197C94.0097 40.6597 94.2297 40.5897 93.1797 41.7397L93.3297 41.9297C93.8797 41.0697 94.6197 40.6197 95.3297 39.9297L95.3797 39.8797L95.6397 39.6097H95.6497Z" fill="#FCFBFA"/>
<path d="M94.7809 38.5795C94.4709 38.2795 94.1609 38.0195 93.8209 37.7695C93.7809 37.9395 93.7609 38.0995 93.7409 38.2695C93.6009 39.5995 93.5609 40.2495 92.9609 41.4995L93.0609 41.6395C93.2109 41.2795 93.5309 40.5295 93.7209 40.2195C93.9809 39.8095 94.3009 39.4595 94.5409 39.0295C94.6109 38.8795 94.7009 38.7295 94.7809 38.5895V38.5795Z" fill="#FCFBFA"/>
<path d="M95.7197 39.7695C95.6397 39.8295 95.5697 39.9095 95.4897 39.9795C94.5397 41.0395 94.8297 41.2895 93.4297 42.0895C93.4697 42.1695 93.5297 42.2495 93.5597 42.3295C94.0397 41.6795 94.8697 41.4995 95.5797 41.2195C95.8597 41.1095 96.1197 40.9695 96.3797 40.8195C96.1797 40.4495 95.9597 40.1095 95.7097 39.7695H95.7197Z" fill="#FCFBFA"/>
<path d="M97.0491 46.3997C96.8191 46.2597 96.6091 46.0497 96.3791 45.8997C95.7691 45.4797 95.0891 45.1197 94.5291 44.6297C94.1891 44.3297 93.9191 43.9596 93.5891 43.6396L93.5391 43.7596C93.9291 44.2096 94.3791 44.5996 94.7791 45.0396C95.2991 45.5996 95.7691 46.2396 96.2191 46.8596C96.3291 47.0096 96.4391 47.1496 96.5491 47.2896C96.7191 47.0596 97.0191 46.6997 97.0491 46.3997Z" fill="#FCFBFA"/>
<path d="M96.8106 44.9595C96.3106 44.8095 95.2806 44.4495 94.8506 44.1995C94.4406 43.9595 94.0806 43.6295 93.6406 43.4395L93.6706 43.5895C94.1306 43.8795 94.6006 44.1695 95.0306 44.4995C95.6206 44.9395 96.5706 45.8095 97.1006 46.3495C97.2306 45.9895 97.3006 45.6295 97.3606 45.2595C97.1806 45.1495 96.9906 45.0695 96.8006 44.9695L96.8106 44.9595Z" fill="#FCFBFA"/>
<path d="M93.2701 43.9697L93.1602 44.0197C93.3302 44.5197 93.5602 44.9697 93.7602 45.4597C94.0602 46.2197 94.3402 47.0097 94.5602 47.7997C94.6602 47.9397 94.7302 48.1497 94.8102 48.2997C95.1202 48.2197 95.4002 48.1297 95.6802 47.9697L95.4402 47.6197C95.0802 47.0597 94.6202 46.5697 94.2502 46.0297C93.8202 45.3997 93.5402 44.6797 93.2602 43.9697H93.2701Z" fill="#FCFBFA"/>
<path d="M93.6989 37.6493C93.3989 37.4093 93.0789 37.2293 92.7389 37.0693C92.7489 37.3493 92.7589 37.6293 92.7689 37.9093C92.8689 39.0793 92.8789 40.1893 92.6289 41.3393C92.6889 41.3593 92.7489 41.3793 92.7989 41.4093C92.8689 40.8193 92.9589 40.2193 93.1289 39.6493C93.2889 39.1193 93.4989 38.6093 93.6289 38.0693L93.6989 37.6393V37.6493Z" fill="#FCFBFA"/>
<path d="M96.4611 41C95.9111 41.2 95.5311 41.64 95.0511 41.94C94.6411 42.2 94.0911 42.34 93.6211 42.46L93.6911 42.68C95.0111 42.08 95.3911 42.4 96.7311 42.28L97.0011 42.26C96.8411 41.83 96.6911 41.4 96.4611 41Z" fill="#FCFBFA"/>
<path d="M96.7705 43.7598C95.8805 43.6798 94.4605 43.5998 93.7305 43.0898V43.3398C94.9905 43.5898 95.7605 44.1798 96.8305 44.8198L97.3905 45.0798C97.4005 44.6898 97.4005 44.3098 97.3605 43.9198C97.1605 43.8598 96.9605 43.8098 96.7705 43.7598Z" fill="#FCFBFA"/>
<path d="M93.4711 43.8193L93.3711 43.9193C93.6511 44.4593 94.0311 44.9493 94.3411 45.4693C94.7611 46.1693 95.1311 46.9093 95.5911 47.5893L95.8111 47.9393C96.0611 47.7793 96.2711 47.5993 96.4811 47.3893C96.3511 47.2093 96.2211 47.0293 96.0811 46.8593C95.7111 46.4493 95.2711 46.1193 94.8611 45.7393C94.2911 45.1993 93.8311 44.5093 93.4611 43.8193H93.4711Z" fill="#FCFBFA"/>
<path d="M92.9807 44.0498H92.9407C92.8607 44.3398 93.2407 45.3798 93.3007 45.7498C93.4007 46.4398 93.3707 47.1498 93.4707 47.8298C93.4907 47.9998 93.5307 48.1598 93.5807 48.3298C93.9407 48.3598 94.2807 48.3598 94.6307 48.3298C94.5507 48.0898 94.4507 47.8598 94.3607 47.6298C94.0907 46.9598 93.7107 46.3498 93.4607 45.6698C93.2707 45.1498 93.2107 44.5498 92.9807 44.0498Z" fill="#FCFBFA"/>
<path d="M97.1609 43.7599C97.2409 43.7599 97.2509 43.7599 97.3109 43.7099C97.3009 43.2999 97.2109 42.8099 97.0609 42.4299C96.9809 42.3699 96.9209 42.3899 96.8209 42.3899C96.1709 42.4699 95.7609 42.6999 95.1909 42.8099C94.7609 42.8899 94.1609 42.8299 93.7109 42.8099L93.7409 43.0199C94.6009 42.8199 95.5209 43.1999 96.3309 43.4499C96.5609 43.5199 96.8809 43.5799 97.0809 43.6999C97.1109 43.7199 97.1309 43.7299 97.1609 43.7499V43.7599Z" fill="#FCFBFA"/>
<path d="M92.7409 43.9995L92.6109 43.9795C92.5809 44.0395 92.5709 44.0695 92.5709 44.1495C92.5709 44.2895 92.6209 44.4295 92.6309 44.5695C92.6609 44.8895 92.6709 45.2295 92.6509 45.5495C92.6309 46.1495 92.4209 46.7295 92.2909 47.3095L92.2109 47.8995C92.6009 48.0795 92.9809 48.2095 93.4109 48.2995C93.3809 48.1395 93.3609 47.9795 93.3309 47.8195C93.2209 47.1095 92.9809 46.4295 92.8609 45.7295C92.7609 45.1695 92.7609 44.5695 92.7409 43.9995Z" fill="#FCFBFA"/>
<path d="M92.3088 43.7998C92.0388 45.2498 91.6088 45.6698 91.0888 46.9098C91.0488 47.0098 91.0088 47.0798 91.0288 47.1798C91.3388 47.4498 91.7588 47.6198 92.1188 47.8298L92.1588 47.4398C92.2188 46.6898 92.1088 45.9298 92.1888 45.1898C92.2288 44.7998 92.4588 44.2398 92.4288 43.8798L92.3288 43.7998H92.3088Z" fill="#FCFBFA"/>
<path d="M92.0281 43.5693C91.7781 43.9893 91.5281 44.4093 91.1881 44.7693C90.8481 45.1293 90.4481 45.4393 90.1081 45.8093L89.8281 46.1093C90.1481 46.4293 90.4781 46.7993 90.8481 47.0493C90.9181 47.0293 90.8881 47.0493 90.9181 46.9793C90.9381 46.9393 90.9581 46.8893 90.9681 46.8493C91.3381 45.6793 91.5181 44.7993 92.1281 43.6993L92.0281 43.5693Z" fill="#FCFBFA"/>
<path d="M91.6594 43.1995C90.8994 44.0495 89.7994 44.2495 88.8594 44.8095C89.0594 45.2195 89.4394 45.6495 89.7394 45.9995C89.8394 45.8995 89.9294 45.7895 90.0294 45.6795C90.3294 45.2495 90.5694 44.7795 90.8794 44.3595C91.1494 43.9895 91.5294 43.6695 91.7594 43.2695L91.6694 43.1895L91.6594 43.1995Z" fill="#FCFBFA"/>
<path d="M92.6287 37.0198C92.2487 36.8398 91.8787 36.6898 91.4688 36.5898L91.5387 36.9198C91.8987 38.3898 92.2588 39.7298 92.3288 41.2498L92.4688 41.2898C92.4087 40.1698 92.4488 39.0998 92.5788 37.9898C92.5788 37.6698 92.6187 37.3498 92.6287 37.0298V37.0198Z" fill="#FCFBFA"/>
<path d="M91.3386 36.5497C90.9886 36.5297 90.6586 36.5097 90.3086 36.5597C90.4986 37.2897 90.8486 37.9997 91.1486 38.6997C91.2686 38.9797 91.4786 39.3897 91.4986 39.6897C91.7186 40.1597 91.7986 40.9197 92.0186 41.2997C92.0986 41.3197 92.0586 41.3097 92.1386 41.2997C91.8886 40.5297 91.7186 39.6497 91.6386 38.8497C91.5786 38.2097 91.5586 37.5797 91.4286 36.9497L91.3486 36.5397L91.3386 36.5497Z" fill="#FCFBFA"/>
<path d="M91.3616 42.4199C90.9316 42.4199 90.5016 42.4199 90.0816 42.3299C89.2416 42.1599 88.4516 41.8099 87.6016 41.6699C87.6616 42.0099 87.8016 42.8099 87.9916 43.0999C88.7116 43.0099 89.4016 42.7899 90.1216 42.6599C90.5616 42.5799 91.0016 42.5999 91.4416 42.5599L91.3516 42.4299L91.3616 42.4199Z" fill="#FCFBFA"/>
<path d="M89.0303 39.1996C88.7403 38.8296 88.5003 38.4196 88.2003 38.0596C88.0603 38.3296 87.9303 38.5896 87.8203 38.8696C88.0503 39.1596 88.2203 39.4596 88.3903 39.7896C88.9503 40.4596 89.9203 40.8396 90.6303 41.3296C90.8503 41.4796 91.2003 41.8396 91.4203 41.9196C91.4203 41.8296 91.3903 41.7996 91.3503 41.7196C91.2003 41.6396 91.0403 41.4696 90.9103 41.3596C90.2003 40.7496 89.4703 40.0396 89.0303 39.1996Z" fill="#FCFBFA"/>
<path d="M91.4808 42.72C91.2508 42.86 91.0308 42.97 90.7708 43.05C90.2808 43.18 88.6008 43.25 88.1008 43.17L88.0508 43.21C88.0808 43.45 88.6208 44.61 88.7908 44.71C88.7908 44.71 88.8108 44.71 88.8208 44.71C89.3408 44.34 89.8208 43.91 90.3508 43.55C90.7308 43.29 91.1508 43.1 91.5408 42.85L91.4908 42.71L91.4808 42.72Z" fill="#FCFBFA"/>
<path d="M90.1706 36.5898C89.8006 36.6898 89.4706 36.8498 89.1406 37.0498C89.2706 37.2698 89.3906 37.4898 89.5206 37.7098C90.0406 38.5298 90.5906 39.3198 91.0606 40.1798C91.1806 40.3998 91.6406 41.3898 91.7206 41.4798L91.7806 41.3898C91.7606 41.1898 91.6406 40.9898 91.5506 40.7998C90.8206 39.4998 90.6806 37.9698 90.1606 36.5998L90.1706 36.5898Z" fill="#FCFBFA"/>
<path d="M89.0612 37.1299C88.7812 37.3599 88.4912 37.6099 88.2812 37.9099C88.5613 38.3399 88.8612 38.7099 89.2012 39.0899C90.0212 39.8599 90.8013 40.7499 91.4713 41.6499C91.5013 41.6599 91.4813 41.6499 91.5413 41.6499V41.5499C91.1313 40.9799 90.7013 40.4199 90.3613 39.7899C90.0213 39.1599 89.7512 38.4799 89.4212 37.8499C89.3012 37.6099 89.1813 37.3699 89.0513 37.1399L89.0612 37.1299Z" fill="#FCFBFA"/>
<path d="M88.0495 39.43L87.6795 39.25C87.6195 39.56 87.5595 39.87 87.5395 40.19C87.8795 40.35 88.2195 40.48 88.5795 40.58C88.2095 40.56 87.8695 40.5 87.5195 40.39C87.5195 40.77 87.5195 41.15 87.5795 41.53C88.5895 41.6 89.6095 41.66 90.5795 41.95C90.8595 42.04 91.1195 42.16 91.3895 42.26L91.3695 42.16C91.0195 41.94 90.6395 41.8 90.2695 41.62C89.7095 41.35 88.9795 40.87 88.5895 40.37C88.4595 40.21 88.3695 40.03 88.2795 39.84C88.2095 39.7 88.1395 39.55 88.0395 39.42L88.0495 39.43Z" fill="#FCFBFA"/>
<path d="M90.1814 47.4397L90.1514 47.4197C89.7314 47.1697 89.3414 46.8597 88.9414 46.5897C88.3314 46.1797 87.7014 45.7797 87.0714 45.3997C82.5514 42.6197 77.0914 39.9997 71.6614 41.3597C69.6714 41.8597 67.8214 42.7397 66.1314 43.8997L64.1914 55.7197C67.8614 53.3797 71.6614 52.1497 76.0214 53.1097C79.2214 53.8197 82.1214 55.3997 84.9014 57.0797C88.6814 59.3597 92.2814 61.9397 96.1914 63.9997C102.761 67.4497 107.991 68.2097 114.651 64.4997C115.281 60.6297 115.871 56.7497 116.551 52.8897L116.511 52.9097C116.121 53.0697 115.761 53.2997 115.391 53.4897C114.841 53.7697 114.261 54.0197 113.681 54.2397C109.371 55.8397 105.131 55.3797 100.931 53.6897C98.4814 52.6997 96.2314 51.4197 94.0014 50.0197C93.3614 49.6197 92.4314 49.0597 91.8814 48.5897C91.3314 48.2497 90.6814 47.8797 90.2114 47.4497L90.1814 47.4397Z" fill="#09892F"/>
<path d="M120.318 29.4496C118.148 30.6596 115.848 31.4496 113.378 31.7196C105.428 32.5796 98.8683 27.1596 92.6183 23.0996C90.4683 21.6996 88.2483 20.3896 85.8883 19.3896C83.8583 18.5296 81.7283 17.9096 79.5183 17.7896C76.7083 17.6396 73.9783 18.3796 71.5283 19.7196C70.9783 20.0196 70.3583 20.3596 69.8883 20.7796L67.9883 32.4196C68.5983 32.1496 69.1783 31.7796 69.7783 31.4696C71.0283 30.8196 72.3583 30.3396 73.7383 30.0396C80.1183 28.6796 86.3783 32.3396 91.5283 35.6796C93.3683 36.2896 94.4283 37.1096 95.7383 38.4796C96.0983 38.6396 96.4383 38.8696 96.7683 39.0696C97.3083 39.3996 97.8483 39.7296 98.3883 40.0396C101.188 41.6596 104.048 43.1596 107.248 43.7696C111.068 44.4896 115.158 43.6296 118.368 41.4396L119.628 33.7196C119.858 32.3096 120.128 30.8896 120.308 29.4696L120.318 29.4496Z" fill="#F2730A"/>
<path d="M58.8019 -0.000273438C58.5819 1.39973 58.3919 2.64973 58.1919 3.88973C57.8719 5.86973 57.5419 7.83973 57.2119 9.80973C56.7919 12.3097 56.3519 14.7997 55.9419 17.2997C55.5319 19.7497 55.1419 22.1997 54.7419 24.6497C54.1919 27.9797 53.6419 31.2997 53.0819 34.6297C52.5419 37.8897 51.9919 41.1397 51.4419 44.3997C50.8919 47.7197 50.3419 51.0497 49.7919 54.3697C49.2419 57.6397 48.6919 60.9197 48.1519 64.1897C47.6019 67.4997 47.0619 70.8097 46.4919 74.1097C46.3719 74.7797 46.2319 75.4497 46.1719 76.1297C46.1519 76.3397 46.0919 76.5097 45.7919 76.4997C43.3219 76.3997 40.8519 76.4697 38.3819 76.4597C37.6019 76.4597 37.6019 76.4697 37.6519 75.7297C37.6519 75.6097 37.6519 75.4897 37.6519 75.3697C37.6519 68.1097 37.6519 60.8597 37.6519 53.5997C37.6519 46.8297 37.6519 40.0597 37.6519 33.2897C37.6519 32.8297 37.6519 32.3697 37.6219 31.9097C37.5919 31.5197 37.7019 31.4197 38.0419 31.5997C38.9419 32.0597 39.8319 32.5197 40.7319 32.9797C42.4719 33.8697 44.2019 34.7597 45.9419 35.6397C46.0719 35.7097 46.2119 35.8497 46.3619 35.7097C46.4919 35.5897 46.4419 35.4197 46.4219 35.2697C46.2619 34.2897 46.0919 33.3097 45.9319 32.3297C45.6819 30.8497 45.4319 29.3597 45.1919 27.8797C44.9719 26.5497 44.7619 25.2097 44.5319 23.8797C44.4719 23.5597 44.5519 23.3397 44.7919 23.1097C46.7419 21.2097 48.6719 19.2997 50.6119 17.3797C51.4419 16.5597 52.2419 15.7197 53.0619 14.8897C53.1619 14.7897 53.2819 14.6997 53.2419 14.5397C53.1919 14.3797 53.0419 14.3697 52.9119 14.3497C50.0819 13.9297 47.2519 13.5397 44.4319 13.0997C43.4319 12.9397 42.4319 12.8197 41.4319 12.6697C41.2019 12.6397 40.9219 12.5797 40.8819 12.2897C40.8519 12.0297 41.1319 11.9997 41.2919 11.8897C43.1719 10.6097 45.0519 9.32973 46.9319 8.04973C48.1219 7.23973 49.3119 6.43973 50.5019 5.62973C52.3619 4.35973 54.2119 3.06973 56.0719 1.78973C56.9419 1.19973 57.8219 0.629727 58.8119 -0.0302734L58.8019 -0.000273438Z" fill="black"/>
<path d="M32.7893 64.2196C32.7893 68.0796 32.7793 71.9396 32.7993 75.7996C32.7993 76.3296 32.6393 76.4596 32.1293 76.4496C29.7293 76.4196 27.3293 76.4296 24.9193 76.4496C24.4893 76.4496 24.3793 76.2896 24.3093 75.9096C23.8593 73.1696 23.3893 70.4396 22.9393 67.6996C22.5593 65.4396 22.2093 63.1696 21.8293 60.8996C21.3993 58.2796 20.9393 55.6596 20.5093 53.0496C19.9193 49.5196 19.3393 45.9896 18.7493 42.4596C18.1693 38.9596 17.5593 35.4696 16.9793 31.9696C16.4693 28.8996 15.9693 25.8196 15.4593 22.7396C14.9393 19.6096 14.3993 16.4896 13.8793 13.3696C13.2993 9.90964 12.7393 6.43964 12.1693 2.97964C12.0393 2.19964 11.8993 1.42964 11.7593 0.649645C11.7393 0.519645 11.6793 0.339645 11.7993 0.259645C11.9493 0.159645 12.0893 0.299645 12.2093 0.389645C14.5593 1.98964 16.9293 3.55964 19.2493 5.19964C22.2393 7.30964 25.2893 9.33964 28.3093 11.4096C28.6293 11.6296 28.9593 11.8496 29.2793 12.0796C29.3893 12.1596 29.5293 12.2196 29.4993 12.3896C29.4593 12.5496 29.3193 12.5696 29.1793 12.5996C26.3693 13.0196 23.5493 13.4396 20.7393 13.8596C19.5893 14.0296 18.4393 14.2196 17.2893 14.3996C17.1793 14.4196 17.0093 14.3996 16.9993 14.5496C16.9993 14.6296 17.0893 14.7296 17.1593 14.7896C18.3793 15.9896 19.6093 17.1796 20.8293 18.3796C22.4593 19.9896 24.0893 21.6196 25.7193 23.2296C25.8993 23.3996 25.8893 23.5796 25.8593 23.7896C25.3693 26.7696 24.8793 29.7396 24.3893 32.7196C24.2293 33.6696 24.0693 34.6096 23.9193 35.5596C23.8993 35.6996 23.8393 35.8496 23.9493 35.9496C24.1093 36.0896 24.2293 35.9096 24.3593 35.8396C26.9693 34.4796 29.5893 33.1196 32.1993 31.7596C32.7693 31.4596 32.7893 31.4696 32.7893 32.0996C32.7893 36.9696 32.7893 41.8496 32.7893 46.7196C32.7893 47.0896 32.8693 47.5196 32.2793 47.5396C32.0893 47.5396 32.0993 47.7196 32.0993 47.8496C32.0993 49.0896 32.0993 50.3196 32.0993 51.5596C32.0993 51.7396 32.1393 51.8796 32.3493 51.8596C32.8493 51.8196 32.7993 52.1696 32.7993 52.4796C32.7993 55.7096 32.7993 58.9296 32.7993 62.1596C32.7993 62.8496 32.7993 63.5296 32.7993 64.2196H32.7893Z" fill="black"/>
<path d="M27.1706 31.1696C27.2006 30.4896 27.3506 29.8196 27.4606 29.1496C27.8106 26.9896 28.1606 24.8196 28.5306 22.6596C28.5806 22.3496 28.5106 22.1496 28.2806 21.9296C26.3406 20.0396 24.4006 18.1396 22.4706 16.2396C22.3606 16.1396 22.2806 16.0096 22.1406 15.8496C23.1406 15.6896 24.0906 15.5396 25.0306 15.3996C26.9206 15.1096 28.8106 14.8196 30.7006 14.5396C31.0406 14.4896 31.2406 14.3296 31.3806 14.0196C32.3906 11.9596 33.4106 9.90961 34.4306 7.86961C34.6706 7.38961 34.9306 6.90961 35.2206 6.34961C35.4906 6.87961 35.7306 7.33961 35.9706 7.80961C37.0406 9.92961 38.1106 12.0496 39.1706 14.1696C39.2906 14.4096 39.4306 14.5296 39.7006 14.5596C42.3706 14.9396 45.0306 15.3396 47.6906 15.7396C47.7706 15.7496 47.8606 15.7596 47.9406 15.7896C48.0306 15.8096 48.1606 15.7896 48.2006 15.8896C48.2506 16.0296 48.1006 16.0796 48.0306 16.1496C46.0706 18.0996 44.1106 20.0496 42.1406 21.9896C41.9106 22.2196 41.8406 22.4396 41.9006 22.7596C42.3606 25.4396 42.8006 28.1296 43.2506 30.8096C43.2706 30.9196 43.3306 31.0596 43.2506 31.1296C43.1406 31.2296 43.0106 31.1096 42.9106 31.0596C40.4806 29.8096 38.0406 28.5596 35.6206 27.2896C35.3106 27.1296 35.0806 27.1196 34.7706 27.2896C32.9506 28.2596 31.1106 29.2096 29.2706 30.1596C28.7306 30.4396 28.1806 30.7296 27.6406 31.0096C27.5106 31.0796 27.3806 31.1796 27.1806 31.1496L27.1706 31.1696Z" fill="black"/>
<path d="M35.1913 93.8799C45.9313 93.8799 56.6713 93.8799 67.4113 93.8799C68.2513 93.8799 69.0613 93.8899 69.7013 94.5599C70.4413 95.3299 70.6613 96.2099 70.3013 97.2099C69.9613 98.1399 69.0513 98.7499 68.0213 98.7699C67.4913 98.7699 66.9613 98.7699 66.4213 98.7699C45.2513 98.7699 24.0813 98.7699 2.91127 98.7699C1.88127 98.7699 1.00127 98.5399 0.42127 97.6399C-0.10873 96.8399 -0.11873 95.9799 0.33127 95.1499C0.75127 94.3899 1.40127 93.9099 2.31127 93.8899C2.69127 93.8899 3.06127 93.8899 3.44127 93.8899C14.0313 93.8899 24.6113 93.8899 35.2013 93.8899L35.1913 93.8799Z" fill="black"/>
<path d="M32.8019 44.6699H29.9219V53.4099H32.8019V44.6699Z" fill="black"/>
<path d="M65.8409 92.0098C65.3409 90.7898 64.8309 89.5698 64.3309 88.3498C62.9209 84.9598 61.5809 81.5498 60.1509 78.1698C59.9409 77.6698 59.7309 77.5098 59.2109 77.5098C52.5909 77.5298 45.9609 77.5198 39.3409 77.5198C38.4409 77.5198 37.5509 77.5198 36.6509 77.5198H36.2109C36.1309 77.5198 36.0509 77.5098 35.9809 77.5198H34.0209C33.9209 77.5098 33.8209 77.5198 33.7109 77.5198C33.5209 77.5198 33.3309 77.5198 33.1509 77.5198H32.6309C32.5609 77.5198 32.4909 77.5198 32.4309 77.5198C31.1009 77.5198 29.7709 77.5198 28.4509 77.5198H28.1609C22.5309 77.5198 16.9009 77.5198 11.2809 77.5098C10.7809 77.5098 10.5409 77.6598 10.3509 78.1398C8.48088 82.7498 6.58088 87.3398 4.69088 91.9398C4.43088 92.5598 4.43088 92.5598 5.13088 92.5598C15.1709 92.5598 25.2109 92.5598 35.2409 92.5598C45.3109 92.5598 55.3909 92.5598 65.4609 92.5598C66.0909 92.5598 66.0909 92.5598 65.8609 91.9998L65.8409 92.0098Z" fill="black"/>
</g>
<defs>
<clipPath id="clip0_6172_1006">
<rect width="120.32" height="98.77" fill="white"/>
</clipPath>
</defs>
</svg>
