<svg width="103" height="119" viewBox="0 0 103 119" fill="none" xmlns="http://www.w3.org/2000/svg">
<g clip-path="url(#clip0_6172_1166)">
<path d="M71.8567 87.2977C64.4245 87.2856 57.0043 87.2735 49.5721 87.2614C47.3001 87.2614 46.6234 87.9516 46.6234 90.2161C46.6234 97.0701 46.5992 103.924 46.6475 110.778C46.6475 111.783 46.3333 112.207 45.4149 112.34C43.7834 112.57 42.164 112.994 40.5325 113.018C38.3935 113.055 36.2666 112.776 34.0308 112.631C33.7408 113.6 33.4266 114.677 33.0882 115.828C38.321 115.828 43.4208 115.828 48.6657 115.828C48.6657 115.283 48.6657 114.774 48.6657 114.278C48.6657 106.794 48.6657 99.3103 48.6657 91.8266C48.6657 89.7801 49.3062 89.1504 51.3486 89.1383C58.2249 89.1383 65.1133 89.1383 71.9897 89.1383C72.4005 89.1383 72.8114 89.1383 73.3553 89.1383C73.3553 98.1599 73.3553 107 73.3553 115.828H75.1197C75.1197 115.307 75.1197 114.847 75.1197 114.387C75.1197 101.308 75.1197 88.2301 75.1197 75.1519C75.1197 72.9722 75.736 72.3546 77.9234 72.3425C82.564 72.3425 87.2046 72.3425 91.8452 72.3425C94.3105 72.3425 94.9027 72.9237 94.9027 75.3941C94.9027 88.436 94.9027 101.466 94.9027 114.508C94.9027 114.932 94.9027 115.343 94.9027 115.816C95.3136 115.84 95.5795 115.864 95.8453 115.864C97.6581 115.864 99.4587 115.864 101.271 115.864C102.287 115.864 102.927 116.348 103.012 117.378C103.096 118.322 102.383 118.928 101.235 118.976C100.957 118.976 100.679 118.976 100.413 118.976C67.8203 118.976 35.2393 118.976 2.64624 118.976C2.29577 118.976 1.93323 118.976 1.58276 118.976C0.591796 118.928 0.0117188 118.346 0.0117188 117.414C0.0117188 116.469 0.640136 115.925 1.61902 115.876C2.19909 115.852 2.76709 115.876 3.46801 115.876C3.46801 100.194 3.46801 84.6457 3.46801 68.976H7.734C7.734 68.092 7.69774 67.3412 7.734 66.6026C8.03612 60.6689 13.704 56.6001 19.396 58.2349C23.4565 59.3974 25.9702 62.9818 25.9702 67.644C25.9702 83.241 25.9702 98.838 25.9702 114.435C25.9702 114.895 25.9702 115.343 25.9702 115.84C27.5171 115.84 28.8827 115.84 30.3328 115.84C30.7558 114.411 31.1788 113.006 31.5897 111.589C30.635 111.105 29.8132 110.633 28.9552 110.269C28.0125 109.882 27.7708 109.24 27.7829 108.247C27.8192 96.7068 27.8071 85.1664 27.7829 73.6261C27.7829 72.7663 28.0367 72.3061 28.786 71.8702C39.2999 65.7186 53.2822 69.6542 58.9983 80.4437C59.7355 81.8242 60.3035 83.3016 61.077 85.009C61.077 69.3393 61.077 53.9481 61.077 38.4238C62.6722 38.4238 64.1828 38.4238 65.7176 38.4238C65.7538 38.0847 65.8022 37.8909 65.7901 37.6972C65.6813 36.6195 66.1285 36.2683 67.2161 36.3288C69.0168 36.4257 70.8295 36.353 72.6422 36.353C74.2012 36.353 75.7722 36.353 77.44 36.353C78.02 47.7844 78.588 59.0826 79.156 70.4897C78.2134 70.4897 77.44 70.4897 76.6544 70.4897C73.8991 70.4897 73.319 71.0589 73.319 73.7835C73.319 78.2277 73.319 82.6719 73.319 87.2977C72.7389 87.2977 72.3159 87.2977 71.893 87.2977H71.8567ZM61.7416 44.7086C62.9622 44.7086 64.1103 44.7086 65.4154 44.7086C65.4517 43.8609 65.5 43.0254 65.5484 42.0808C64.2432 42.0808 63.0347 42.0808 61.7537 42.0808C61.7537 42.9648 61.7537 43.8004 61.7537 44.7086H61.7416ZM65.2342 48.2082C65.2825 47.3242 65.3308 46.4766 65.3792 45.5442C64.1707 45.5442 63.0105 45.5442 61.7658 45.5442C61.7658 46.4039 61.7658 47.2758 61.7658 48.2082C62.9018 48.2082 64.0136 48.2082 65.2221 48.2082H65.2342ZM7.62523 99.5283C7.62523 98.6201 7.62523 97.7482 7.62523 96.8158H4.16894V99.5283C5.36535 99.5283 6.45299 99.5283 7.62523 99.5283ZM4.16894 95.9802C5.29284 95.9802 6.42882 95.9802 7.63732 95.9802C7.63732 95.1083 7.63732 94.2728 7.63732 93.3645C6.46508 93.3645 5.35326 93.3645 4.16894 93.3645C4.16894 94.2485 4.16894 95.0599 4.16894 95.9802ZM4.18103 89.9133C4.18103 90.8094 4.18103 91.645 4.18103 92.5774C5.31701 92.5774 6.42882 92.5774 7.62523 92.5774V89.9133C6.47716 89.9133 5.36535 89.9133 4.18103 89.9133ZM4.16894 89.1141C5.34118 89.1141 6.45299 89.1141 7.63732 89.1141C7.63732 88.2301 7.63732 87.3825 7.63732 86.45C6.51342 86.45 5.4016 86.45 4.16894 86.45C4.16894 87.3703 4.16894 88.2059 4.16894 89.1141ZM4.16894 82.1996C5.34118 82.1996 6.44091 82.1996 7.63732 82.1996C7.63732 81.3156 7.63732 80.48 7.63732 79.5476H4.16894C4.16894 80.4437 4.16894 81.2793 4.16894 82.1996ZM4.20519 76.0238C4.20519 76.9077 4.20519 77.7796 4.20519 78.7121C5.32909 78.7121 6.44091 78.7121 7.63732 78.7121C7.63732 77.8402 7.63732 76.9925 7.63732 76.0238C6.47716 76.0238 5.4016 76.0238 4.20519 76.0238ZM7.63732 102.992V100.328C6.48925 100.328 5.37743 100.328 4.18103 100.328V102.992C5.38952 102.992 6.47716 102.992 7.63732 102.992ZM4.15686 106.382C5.29284 106.382 6.40465 106.382 7.61315 106.382C7.61315 105.571 7.61315 104.723 7.61315 103.779C6.5255 103.779 5.41369 103.779 4.15686 103.779C4.15686 104.651 4.15686 105.462 4.15686 106.382ZM4.18103 107.206C4.18103 108.102 4.18103 108.949 4.18103 109.882C5.29284 109.882 6.41674 109.882 7.61315 109.882V107.206C6.47716 107.206 5.36535 107.206 4.18103 107.206ZM7.66149 110.742C6.54967 110.742 5.43786 110.742 4.21728 110.742C4.21728 111.565 4.21728 112.437 4.21728 113.357C5.37743 113.357 6.50133 113.357 7.66149 113.357C7.66149 112.473 7.66149 111.65 7.66149 110.742ZM61.7658 49.0075C61.7658 49.8551 61.7658 50.6907 61.7658 51.6352C62.8293 51.6352 63.8927 51.6352 65.0408 51.6352C65.1012 50.7876 65.1738 49.9762 65.2463 49.0075C64.0136 49.0075 62.938 49.0075 61.7658 49.0075ZM61.7537 39.1746C61.7537 39.889 61.7537 40.5308 61.7537 41.3422C62.8655 41.3422 63.9532 41.3785 65.0287 41.3058C65.2463 41.2937 65.5484 40.9183 65.6209 40.6519C65.7297 40.216 65.6934 39.7316 65.7176 39.1746C64.2915 39.1746 63.0589 39.1746 61.7537 39.1746ZM61.7295 55.0864H64.9079C64.9562 54.2267 64.9925 53.379 65.0408 52.4466C63.9169 52.4466 62.8776 52.4466 61.7295 52.4466C61.7295 53.379 61.7295 54.1903 61.7295 55.0864ZM4.19311 82.9746C4.19311 83.8707 4.19311 84.7063 4.19311 85.6145H7.63732V82.9746C6.44091 82.9746 5.36535 82.9746 4.19311 82.9746ZM4.15686 75.2124C5.31701 75.2124 6.42882 75.2124 7.62523 75.2124C7.62523 74.3769 7.62523 73.5413 7.62523 72.6089C6.50133 72.6089 5.38952 72.6089 4.15686 72.6089C4.15686 73.505 4.15686 74.3163 4.15686 75.2124ZM61.7175 58.574C62.6963 58.574 63.651 58.574 64.7145 58.574C64.7508 57.7142 64.7991 56.8786 64.8475 55.9341C63.7961 55.9341 62.8172 55.9341 61.7175 55.9341C61.7175 56.8544 61.7175 57.6658 61.7175 58.574ZM7.67357 69.7389C6.50133 69.7389 5.35326 69.7389 4.18103 69.7389C4.18103 70.4534 4.18103 71.1073 4.18103 71.8096H7.67357V69.7389ZM64.6903 59.4337C63.6994 59.4337 62.7568 59.4337 61.7416 59.4337V62.0494C62.6842 62.0494 63.5664 62.0494 64.5212 62.0494C64.5695 61.1775 64.6299 60.3541 64.6783 59.4337H64.6903ZM64.5212 62.8244C63.5423 62.8244 62.7084 62.8244 61.7658 62.8244C61.7658 63.6721 61.7658 64.5076 61.7658 65.4522C62.5513 65.4522 63.3731 65.4522 64.3641 65.4522C64.4124 64.5803 64.4728 63.7326 64.5212 62.8244ZM61.7537 66.2877C61.7537 67.1959 61.7537 68.0678 61.7537 69.0002C62.5513 69.0002 63.2764 69.0002 64.1949 69.0002C64.2432 68.1405 64.2795 67.2686 64.3278 66.2877C63.3731 66.2877 62.5997 66.2877 61.7416 66.2877H61.7537ZM7.63732 114.144C6.45299 114.144 5.34118 114.144 4.16894 114.144C4.16894 114.714 4.16894 115.21 4.16894 115.803C5.31701 115.803 6.45299 115.803 7.63732 115.803C7.63732 115.246 7.63732 114.726 7.63732 114.144ZM61.7416 75.8905C62.4305 75.8905 63.071 75.8905 63.8323 75.8905C63.8807 75.0308 63.9411 74.1952 64.0015 73.2507C63.2402 73.2507 62.5634 73.2507 61.7416 73.2507C61.7416 74.1468 61.7416 74.9823 61.7416 75.8905ZM64.0136 69.8358H61.7537C61.7537 70.6713 61.7537 71.4948 61.7537 72.4151C62.4909 72.4151 63.2039 72.4151 64.0136 72.4151C64.0136 71.5553 64.0136 70.744 64.0136 69.8358ZM63.651 79.4023C63.7236 78.5183 63.784 77.6828 63.8565 76.7261C63.1435 76.7261 62.503 76.7261 61.7658 76.7261C61.7658 77.5617 61.7658 78.4335 61.7658 79.4023H63.651ZM63.3248 83.6285C62.8534 83.6285 62.37 83.6285 61.7779 83.6285C61.7779 84.5609 61.7779 85.5055 61.7779 86.5227H63.3248C63.3248 85.5539 63.3248 84.6336 63.3248 83.6285ZM61.7537 80.1652C61.7537 81.0492 61.7537 81.8847 61.7537 82.7203C63.6269 83.132 63.7598 82.9383 63.506 80.1652H61.7537Z" fill="white"/>
<path opacity="0.37" d="M53.4146 13.2718C54.3572 15.8996 55.5778 18.3094 58.7561 19.0359C61.8741 19.7504 64.1098 18.6 65.8621 15.8633C66.5389 18.4184 68.1099 19.5082 70.4906 19.4356C72.8593 19.3629 74.1886 18.0914 74.4062 15.7301C74.7566 11.9519 73.4394 8.87608 70.5752 6.42996C68.69 4.8194 66.4905 4.4319 64.1702 4.96471C63.3243 5.15847 62.5387 5.8366 61.8378 6.41785C61.3423 6.82958 61.0402 7.45927 60.6293 8.02842C59.022 3.32993 56.4963 1.19866 52.8466 1.44085C49.8012 1.64671 47.7226 3.669 46.9733 7.31396C46.7195 6.79325 46.5504 6.42996 46.357 6.06668C44.5442 2.72446 41.8735 0.435763 38.0184 0.0482591C32.3747 -0.508778 28.4834 3.20884 28.5317 8.9003C28.58 14.1074 31.8067 18.2488 37.4141 19.8957C42.4173 21.3731 47.0096 20.3438 50.8768 16.7957C51.904 15.8511 52.5566 14.4707 53.3904 13.2597L53.4146 13.2718Z" fill="white"/>
<path d="M38.1267 65.0404C37.3049 65.0404 36.6403 65.004 35.9877 65.0404C35.0209 65.1009 34.4771 65.6822 34.3804 66.6146C34.2958 67.4986 34.9967 68.322 35.9393 68.3463C38.1388 68.3947 40.3383 68.4068 42.5377 68.3463C43.5045 68.322 44.1329 67.5228 44.0604 66.5904C43.9879 65.6216 43.432 65.0888 42.4652 65.0283C41.8126 64.9919 41.148 65.0283 40.3262 65.0283C40.3262 64.4591 40.3262 63.9989 40.3262 63.5388C40.3262 59.6759 40.3383 55.825 40.3262 51.9621C40.302 46.864 37.172 43.7398 32.0722 43.7034C29.3651 43.6792 26.646 43.6913 23.939 43.7034C18.9237 43.7398 15.7333 46.9851 15.7212 52.0348C15.7212 52.5797 15.7212 53.1246 15.7212 53.8391C14.984 53.8391 14.3194 53.8028 13.6789 53.8391C12.6758 53.8996 12.0716 54.4688 11.987 55.4739C11.9024 56.3821 12.6517 57.1813 13.691 57.2055C15.8179 57.254 17.9328 57.2661 20.0597 57.2055C21.0386 57.1692 21.667 56.5637 21.667 55.5223C21.667 54.4809 21.0386 53.936 20.0476 53.8633C19.3951 53.8149 18.7304 53.8633 18.102 53.8633C17.3769 49.8793 18.9842 46.9246 22.2471 46.1011C22.6942 45.9921 23.1776 45.9437 23.649 45.9437C26.5131 45.9316 29.3893 45.9195 32.2534 45.9437C35.7702 45.9558 38.1146 48.2808 38.1267 51.7684C38.1388 56.1399 38.1267 60.4993 38.1267 65.0646V65.0404Z" fill="white"/>
<path d="M76.6534 21.3975C73.2213 21.3975 69.9705 21.3975 66.6108 21.3975C66.4658 24.219 66.3208 27.0042 66.1758 29.8862C69.8013 29.8862 73.3422 29.8862 77.0764 29.8862C76.9435 27.0889 76.8105 24.2916 76.6655 21.3975H76.6534Z" fill="white"/>
<path d="M71.7376 35.3354C73.6229 35.3354 75.496 35.3112 77.3813 35.3354C78.4206 35.3475 78.8557 34.9358 78.8315 33.858C78.759 30.867 79.2182 30.9033 75.8948 30.9154C72.6802 30.9154 69.4656 30.9154 66.2511 30.9154C64.6075 30.9154 64.4746 31.0486 64.4867 32.6229C64.5108 35.2385 64.0274 35.3475 67.1453 35.3112C68.668 35.2991 70.2028 35.3112 71.7255 35.3112L71.7376 35.3354Z" fill="white"/>
</g>
<defs>
<clipPath id="clip0_6172_1166">
<rect width="103" height="119" fill="white"/>
</clipPath>
</defs>
</svg>
